Coordinates
version=1
nRows=14
nColumns=24
inDegrees=yes

Units are S.I. units (second, meters, Newtons, ...)
Angles are in degrees.

endheader
time	pelvis_tilt	pelvis_list	pelvis_rotation	pelvis_tx	pelvis_ty	pelvis_tz	hip_flexion_r	hip_adduction_r	hip_rotation_r	knee_angle_r	ankle_angle_r	subtalar_angle_r	mtp_angle_r	hip_flexion_l	hip_adduction_l	hip_rotation_l	knee_angle_l	ankle_angle_l	subtalar_angle_l	mtp_angle_l	lumbar_extension	lumbar_bending	lumbar_rotation
      1.00500000	     19.27008660	      2.11545651	      1.85617574	     -0.54673444	      0.92724542	      0.26514566	      7.57880080	     -0.10688536	     -5.20221742	    -11.73099631	     14.15585116	      3.24664483	     43.18556755	    -35.24826307	      3.13726120	     -5.79520634	    -14.90063504	     29.52877420	     18.43630210	     17.57858692	    -35.43532636	     -0.33910893	      2.03100734
      1.01000000	     19.36630591	      2.08901501	      1.96351454	     -0.53913643	      0.92624463	      0.26536837	      7.65266089	      0.00742117	     -5.01073730	    -12.79948850	     14.56977110	      3.67818515	     42.77393951	    -35.52688256	      2.94343936	     -5.73399196	    -15.53976906	     29.32146831	     18.54430091	     19.36266982	    -35.44823738	     -0.19275690	      1.90571976
      1.01500000	     19.44916502	      2.01133758	      2.12039582	     -0.53139085	      0.92527554	      0.26539114	      7.73005984	      0.16501771	     -5.07019566	    -13.93872875	     14.53036776	      4.05698601	     43.30113385	    -35.78790413	      2.67452548	     -5.66693309	    -16.20133597	     29.16222572	     18.65329359	     20.26355354	    -35.40977158	      0.03241056	      1.73633388
      1.02000000	     19.55676953	      2.05562209	      2.34646827	     -0.52393824	      0.92440587	      0.26527297	      7.89176180	      0.17244740	     -5.37215342	    -15.29244760	     13.41427960	      4.15315105	     45.47260698	    -35.99726248	      2.49856050	     -5.30934468	    -16.95650302	     28.91880388	     18.48100003	     21.74376716	    -35.44315197	      0.19749945	      1.42343385
      1.02500000	     19.56162630	      1.88546004	      2.58638631	     -0.51647008	      0.92356268	      0.26522008	      8.06476813	      0.44781146	     -5.44929776	    -16.35029832	     11.04204978	      3.18731093	     47.37100415	    -36.02570436	      2.09131491	     -5.20510465	    -17.83667792	     28.72789185	     18.65998445	     23.48655310	    -35.35230218	      0.55797925	      1.30653713
      1.03000000	     19.48582277	      1.79000706	      2.80760941	     -0.50928585	      0.92280396	      0.26510884	      8.45734532	      0.57012364	     -5.59097944	    -17.67263839	      9.41751417	      2.43526804	     47.09745921	    -35.88871383	      1.80495732	     -4.82429437	    -18.82973689	     28.58376667	     18.54752442	     23.90157250	    -35.21329188	      0.83628187	      1.10463360
      1.03500000	     19.25854693	      1.72298370	      2.95281401	     -0.50198878	      0.92194886	      0.26501373	      9.10006112	      0.56802053	     -5.77271332	    -19.15395774	      9.05106600	      2.37651037	     46.70354997	    -35.59661449	      1.63323124	     -4.38103396	    -19.77412217	     27.99302167	     18.03797759	     27.47618469	    -34.89899084	      1.06120804	      1.00530753
      1.04000000	     19.08152362	      1.67127008	      3.09596040	     -0.49480860	      0.92129046	      0.26490376	      9.69259852	      0.54047294	     -5.83626674	    -20.65153146	      9.28246713	      2.51250996	     47.63013317	    -35.25995102	      1.47712802	     -3.91759592	    -20.90393078	     27.51081220	     17.58468106	     29.21599143	    -34.65846351	      1.26628563	      0.91928161
      1.04500000	     18.95235047	      1.59295113	      3.16582603	     -0.48759569	      0.92085270	      0.26501498	     10.20630456	      0.56425995	     -5.82967917	    -22.12545110	      9.52160826	      2.32170780	     47.77113730	    -34.91437328	      1.31810174	     -3.60838167	    -22.13430423	     27.05995334	     17.32332145	     29.86878167	    -34.46124201	      1.45284149	      0.93363971
      1.05000000	     18.83453803	      1.59169386	      3.39905916	     -0.48023716	      0.92057729	      0.26458973	     10.72606606	      0.37206143	     -6.26225779	    -23.77251009	      9.68853010	      2.07411303	     47.31362273	    -34.53205877	      1.19595451	     -3.06484134	    -23.41188747	     26.20936990	     16.57399504	     33.40448152	    -34.26276350	      1.68606521	      0.75607278
      1.05500000	     18.76568398	      1.43932982	      3.46077231	     -0.47283693	      0.92036154	      0.26475989	     11.11677946	      0.47207812	     -6.20338932	    -25.23936901	      9.77283684	      1.07506347	     46.02268775	    -34.08821449	      0.94474687	     -3.10076939	    -24.91587364	     25.38678202	     16.32533106	     35.82128390	    -34.12161268	      1.95447153	      0.79856453
      1.06000000	     18.54342910	      1.40122879	      3.57059287	     -0.46551075	      0.91997178	      0.26476222	     11.72334689	      0.41884994	     -6.24485138	    -26.84840550	     10.29092698	      0.71131893	     45.21067961	    -33.38945110	      0.81366186	     -2.85952493	    -26.56960764	     24.61517551	     16.01459201	     36.86980052	    -33.82458967	      2.13051184	      0.73658420
      1.06500000	     18.61046671	      1.22793371	      3.77700839	     -0.45817655	      0.92028198	      0.26469923	     11.80191900	      0.55957794	     -6.43400095	    -28.12055996	     11.23452002	      1.35297743	     42.84593250	    -32.90056743	      0.45541971	     -2.79034449	    -28.31437468	     23.33555203	     15.39073720	     40.97181309	    -33.81399676	      2.50768345	      0.67695615
      1.07000000	     18.61149222	      0.95923580	      3.98883074	     -0.45091459	      0.92059639	      0.26469688	     11.83438349	      0.87276349	     -6.45793904	    -29.14750272	     11.90472698	      2.01402123	     41.95312959	    -32.23978107	     -0.02947435	     -2.88500915	    -30.20712963	     22.11045167	     15.12084201	     43.77233238	    -33.74582619	      2.97170563	      0.68423848
